<?xml version="1.0" standalone="no"?>
<!DOCTYPE svg PUBLIC "-//W3C//DTD SVG 20010904//EN"
 "http://www.w3.org/TR/2001/REC-SVG-20010904/DTD/svg10.dtd">
<svg version="1.0" xmlns="http://www.w3.org/2000/svg"
 width="510.000000pt" height="510.000000pt" viewBox="0 0 510.000000 510.000000"
 preserveAspectRatio="xMidYMid meet">
<metadata>
Created by potrace 1.11, written by Peter Selinger 2001-2013
</metadata>
<g transform="translate(0.000000,510.000000) scale(0.100000,-0.100000)"
fill="#000000" stroke="none">
<path d="M2329 3866 c-2 -2 -42 -6 -89 -10 -138 -10 -285 -37 -370 -69 -68
-25 -133 -65 -125 -77 3 -5 0 -12 -6 -16 -8 -4 -9 -3 -5 4 4 7 3 12 -2 12 -13
0 -32 -55 -32 -89 0 -14 9 -71 19 -126 11 -55 22 -125 26 -155 3 -30 8 -62 10
-70 3 -8 7 -35 10 -60 3 -25 7 -52 10 -60 2 -8 7 -35 10 -60 4 -25 20 -121 36
-215 36 -211 37 -235 7 -236 -13 0 -32 -2 -43 -4 -11 -3 -36 -7 -55 -10 -76
-11 -110 -18 -245 -50 -403 -96 -604 -214 -622 -364 -7 -59 7 -102 57 -179 21
-33 35 -64 32 -69 -4 -4 -3 -5 1 -1 11 8 48 -23 41 -34 -3 -4 -1 -8 3 -8 16 0
73 -52 67 -61 -3 -5 1 -6 9 -3 9 3 21 -4 29 -15 8 -12 18 -18 21 -14 4 3 7 2
7 -3 0 -6 16 -16 35 -23 21 -7 33 -17 29 -23 -5 -8 -1 -9 10 -5 11 4 26 -2 42
-18 13 -13 24 -20 24 -14 0 6 5 7 11 3 8 -4 7 -9 -2 -15 -7 -4 -17 -5 -22 -2
-5 3 -7 0 -5 -8 3 -8 12 -12 19 -10 8 2 22 3 32 3 16 -1 17 1 5 16 -12 15 -11
16 6 2 10 -8 25 -15 33 -16 8 -2 23 -10 32 -18 10 -9 20 -13 24 -10 3 3 14 1
24 -5 10 -6 12 -11 6 -11 -7 0 -13 -5 -13 -11 0 -6 7 -9 15 -5 8 3 15 1 15 -3
0 -5 -7 -11 -15 -15 -8 -3 -15 -11 -15 -18 0 -9 3 -9 11 -1 9 9 17 9 31 0 16
-10 22 -8 37 9 l18 22 12 -21 c11 -17 11 -22 -3 -32 -21 -16 -20 -20 4 -22 11
-1 18 2 15 8 -4 5 -1 9 5 9 7 0 9 -7 6 -15 -3 -8 -8 -21 -11 -28 -4 -8 1 -14
10 -14 9 0 14 6 11 13 -3 8 -1 16 5 19 5 4 7 11 4 16 -4 5 -1 9 4 9 14 0 14
-13 -1 -28 -7 -7 -8 -12 -2 -12 5 0 15 5 21 11 6 6 17 8 23 4 9 -6 8 -10 -4
-17 -13 -7 -14 -13 -5 -30 8 -15 8 -23 -2 -32 -9 -8 -10 -8 -5 1 3 6 2 14 -4
18 -6 4 -8 10 -5 15 3 5 1 11 -4 14 -5 4 -12 2 -16 -4 -4 -6 -11 -8 -16 -5 -5
4 -9 2 -9 -4 0 -5 -8 -8 -17 -6 -10 2 -20 4 -23 4 -3 1 2 6 10 11 13 8 13 11
1 22 -11 11 -13 11 -6 -1 6 -10 4 -12 -5 -6 -9 6 -11 4 -5 -4 4 -8 -3 -6 -18
4 -17 10 -27 13 -32 6 -3 -6 -11 -11 -17 -11 -6 0 -6 6 2 15 8 10 20 13 34 9
18 -6 19 -5 7 9 -7 9 -17 14 -22 11 -5 -3 -6 1 -3 9 3 8 -2 14 -11 14 -11 0
-14 -6 -9 -21 4 -15 3 -17 -4 -7 -5 7 -12 9 -14 5 -3 -5 -4 -4 -2 2 1 6 -8 10
-22 8 -13 -1 -24 2 -24 7 0 10 -28 7 -47 -4 -7 -5 -13 -4 -13 2 0 5 3 11 8 14
4 2 0 2 -8 0 -8 -2 -11 -1 -7 3 4 4 2 13 -4 21 -9 10 -8 13 0 13 7 0 9 5 5 11
-5 8 -9 8 -14 -1 -5 -8 -9 -7 -14 6 -9 24 0 30 21 13 15 -12 16 -12 10 4 -4
10 -7 21 -7 23 0 3 -9 0 -20 -6 -15 -8 -19 -17 -15 -33 5 -16 4 -18 -3 -8 -8
11 -11 11 -16 0 -3 -8 -3 -4 0 9 3 13 1 22 -6 22 -7 0 -9 9 -5 23 5 17 4 19
-4 7 -6 -8 -11 -11 -11 -7 0 4 -8 3 -17 -2 -15 -7 -18 -5 -20 17 -1 18 1 21 8
11 5 -8 9 -9 9 -3 0 7 -8 20 -17 31 -10 10 -17 17 -15 14 4 -9 -52 -40 -61
-34 -6 3 -7 1 -4 -4 7 -12 -16 -36 -27 -28 -3 3 -2 -1 4 -7 16 -19 12 -32 -5
-18 -13 11 -14 10 -9 -4 4 -12 13 -15 28 -10 17 5 19 4 9 -6 -9 -10 -7 -17 10
-30 18 -15 19 -20 8 -33 -19 -24 -6 -35 39 -33 43 1 62 18 52 45 -5 14 -4 14
12 2 11 -9 13 -18 7 -24 -7 -7 -7 -16 0 -28 7 -13 5 -20 -8 -28 -10 -6 -13
-11 -7 -11 17 0 37 28 28 41 -4 7 -2 10 7 7 8 -3 14 -13 15 -24 3 -47 4 -50
15 -32 5 9 16 15 24 12 8 -4 12 -11 8 -18 -4 -6 1 -4 11 4 16 13 20 12 37 -9
11 -13 22 -21 25 -18 3 2 -7 17 -22 32 -16 17 -30 23 -32 17 -5 -15 -42 3 -42
20 0 7 4 7 14 -1 7 -6 20 -9 28 -6 8 3 25 -3 38 -15 27 -24 40 -25 40 -5 0 8
-5 15 -12 15 -15 0 -1 13 17 16 11 2 14 -5 10 -26 -3 -16 0 -32 6 -35 16 -10
19 -5 28 45 1 3 5 -1 10 -9 6 -9 4 -23 -6 -38 -9 -13 -13 -27 -9 -30 4 -4 9 3
13 15 3 12 9 22 14 22 12 0 12 -1 -6 -44 -8 -20 -13 -36 -10 -36 2 0 11 16 20
36 11 28 12 41 3 57 -11 22 -11 22 11 3 21 -20 24 -44 6 -59 -6 -5 -4 -7 5 -4
8 2 14 9 13 15 -5 21 27 21 42 -1 8 -12 15 -17 15 -13 0 5 -7 18 -17 28 -9 11
-11 18 -5 18 7 0 17 -9 24 -20 14 -21 38 -27 38 -9 0 5 5 7 10 4 6 -4 8 -11 4
-16 -3 -5 0 -8 7 -7 6 2 13 -2 16 -9 3 -7 -3 -10 -15 -6 -24 6 -34 -8 -20 -27
8 -12 9 -11 4 4 -5 15 -2 17 14 13 28 -7 35 10 14 34 -19 22 -8 25 18 5 10 -7
14 -16 10 -20 -4 -4 -2 -7 3 -6 21 5 36 0 30 -10 -4 -6 1 -7 11 -3 12 4 14 8
6 11 -10 3 -10 7 -1 18 6 8 8 14 3 14 -12 0 19 20 31 20 6 0 3 -5 -5 -10 -13
-9 -13 -10 0 -10 13 0 13 -2 1 -9 -12 -8 -12 -12 2 -25 15 -15 16 -14 12 15
-3 25 -1 29 12 25 12 -5 13 -4 5 7 -7 8 -9 17 -5 20 3 4 0 14 -7 22 -11 13
-11 16 1 13 8 -2 13 3 11 10 -1 8 2 11 9 7 7 -5 7 -11 1 -17 -17 -17 -3 -39
18 -28 22 12 50 3 50 -16 0 -8 5 -14 11 -14 5 0 7 6 3 13 -4 6 -4 9 1 5 4 -4
16 -3 26 3 13 6 19 6 19 -1 0 -5 -7 -10 -16 -10 -8 0 -12 -5 -9 -11 4 -6 10
-8 13 -5 3 3 12 0 20 -7 13 -10 14 -8 7 13 -7 25 -7 25 10 5 14 -17 16 -18 11
-2 -3 10 -2 16 3 12 5 -3 11 1 14 7 2 7 4 1 4 -15 0 -15 -4 -30 -10 -34 -6 -3
-7 -1 -3 5 5 8 2 10 -8 6 -9 -3 -16 -10 -16 -16 0 -5 4 -7 9 -4 5 3 14 -1 21
-9 19 -23 -6 -19 -30 5 -11 11 -20 16 -20 10 0 -5 -5 -10 -11 -10 -5 0 -8 4
-5 8 3 5 -1 9 -9 9 -8 0 -15 -4 -15 -9 0 -5 -5 -6 -11 -2 -8 4 -7 9 2 15 9 6
10 9 2 9 -17 0 -56 -57 -43 -65 5 -3 18 -1 27 5 15 9 14 10 -7 5 -24 -6 -24
-5 -6 9 14 11 23 13 32 5 9 -7 19 -7 35 1 19 11 21 10 16 -3 -4 -11 -2 -14 8
-11 7 3 23 0 34 -6 18 -9 27 -7 53 11 27 19 31 20 25 5 -4 -10 -3 -15 3 -11 6
3 10 1 10 -5 0 -7 12 -9 29 -7 21 4 31 0 36 -10 3 -9 8 -13 12 -10 3 4 0 13
-7 22 -8 9 -9 15 -2 15 6 0 16 -8 21 -17 7 -12 10 -14 11 -4 0 11 3 11 15 1 9
-7 18 -10 22 -6 3 3 1 6 -5 6 -20 0 -13 16 8 17 11 1 19 -1 19 -5 -1 -4 -1
-14 0 -22 1 -12 3 -12 12 2 6 11 16 15 26 11 12 -5 15 -2 10 10 -7 19 -6 20
17 11 9 -3 16 -10 16 -16 0 -5 -5 -6 -12 -2 -7 4 -8 3 -4 -4 4 -7 0 -12 -11
-13 -11 0 -13 -3 -5 -6 18 -7 44 17 37 34 -3 9 0 13 7 10 7 -2 12 -14 11 -26
-2 -13 1 -20 7 -16 6 3 10 13 10 21 0 8 5 14 11 14 6 0 8 -7 5 -15 -16 -41
-15 -47 3 -15 18 31 27 33 22 7 -1 -5 3 -6 8 -3 5 4 11 3 14 -1 2 -5 3 -3 1 4
-5 21 9 23 26 3 17 -19 18 -19 25 -3 6 17 7 17 21 -1 13 -19 20 -11 15 17 -1
8 23 10 31 1 4 -3 -2 -14 -13 -25 -10 -10 -19 -25 -18 -31 0 -10 2 -10 6 0 2
6 9 10 14 7 5 -4 6 2 2 12 -6 16 -5 16 10 4 15 -12 17 -12 12 0 -4 11 8 14 60
15 57 0 63 -2 52 -15 -11 -14 -10 -14 7 -1 18 14 19 13 13 -3 -4 -11 -3 -16 3
-12 6 3 10 1 10 -6 0 -7 3 -9 6 -6 4 4 -1 18 -10 31 -20 31 -20 36 -1 36 8 0
14 -3 14 -7 -3 -20 2 -30 16 -30 8 0 12 4 9 9 -3 4 -1 8 5 8 5 0 9 9 8 19 -1
16 -5 18 -20 9 -16 -8 -17 -7 -8 11 7 12 7 22 2 26 -5 3 -13 -4 -16 -16 -4
-13 -12 -18 -21 -15 -10 4 -12 2 -8 -6 5 -7 3 -8 -6 -3 -9 6 -11 4 -5 -5 5 -9
4 -11 -4 -6 -6 4 -9 12 -6 17 4 5 2 9 -4 9 -5 0 -12 -4 -15 -9 -3 -4 -17 -7
-31 -6 -15 2 -23 -1 -19 -7 4 -6 -2 -5 -15 1 -11 7 -21 9 -21 5 0 -3 -6 -1
-14 5 -9 7 -17 8 -20 2 -3 -5 -14 -8 -24 -6 -9 1 -22 -2 -29 -7 -7 -5 -14 -5
-18 2 -6 9 -1 12 34 14 8 1 16 7 19 14 2 8 -3 10 -15 6 -15 -5 -15 -4 -3 5 11
8 18 7 26 -4 13 -18 25 -9 17 13 -4 13 -2 12 9 -2 18 -23 58 -29 58 -9 0 9 -5
11 -12 7 -7 -4 -9 -3 -5 1 15 17 35 13 30 -6 -3 -10 0 -19 6 -19 6 0 11 7 11
15 0 8 3 15 8 16 4 0 15 2 25 4 11 2 21 -5 26 -18 l8 -21 12 21 c12 23 46 21
38 -2 -3 -6 1 -12 9 -12 9 0 13 6 9 15 -5 12 -3 13 10 2 13 -11 13 -15 3 -21
-9 -6 -9 -9 -1 -9 18 0 26 19 14 34 -8 9 -4 12 19 12 27 0 35 -7 31 -28 0 -5
6 -8 14 -8 8 0 14 3 14 8 -1 4 -1 13 0 20 2 20 40 -9 38 -30 -1 -20 -23 -32
-32 -18 -10 17 -25 11 -25 -10 0 -11 6 -20 13 -20 6 -1 1 -7 -13 -14 l-25 -14
26 1 c25 2 32 17 16 33 -4 4 -7 12 -7 18 1 6 12 -2 26 -19 19 -22 23 -24 15
-8 -7 13 -8 23 -2 23 5 0 12 -7 15 -16 4 -9 9 -14 13 -11 3 4 0 13 -7 22 -19
22 4 18 25 -5 14 -15 22 -17 37 -9 10 5 16 14 13 20 -12 18 15 9 35 -13 11
-12 20 -17 20 -12 0 6 -5 15 -11 21 -9 9 -7 12 10 10 13 -1 20 -6 17 -14 -7
-17 -1 -16 18 3 14 14 19 12 53 -23 20 -21 30 -29 23 -18 -8 11 -20 25 -27 31
-10 9 -9 15 8 30 21 19 22 19 15 -3 -5 -15 -3 -23 4 -23 6 0 8 4 5 10 -3 5 3
10 15 10 12 0 18 -4 15 -10 -3 -5 -1 -10 4 -10 18 0 13 20 -6 28 -21 8 -29 32
-11 32 6 0 8 3 5 7 -4 3 -18 -4 -31 -16 -14 -13 -26 -18 -30 -12 -4 5 2 12 13
16 14 4 18 13 15 29 -6 34 21 40 40 10 9 -13 22 -24 28 -24 9 0 9 3 0 12 -7 7
-12 16 -12 22 0 5 7 1 16 -10 14 -18 15 -18 8 6 -3 14 -3 22 1 18 5 -4 15 -2
24 5 14 11 14 10 2 -5 -7 -10 -11 -25 -7 -33 4 -11 2 -14 -6 -9 -7 5 -8 3 -3
-6 6 -9 4 -11 -5 -5 -8 5 -11 4 -7 -2 4 -6 -4 -9 -18 -7 -14 1 -25 -1 -25 -6
0 -12 30 -21 43 -13 6 4 8 0 4 -10 -3 -9 -1 -19 6 -23 7 -4 9 -4 5 1 -4 4 -3
14 3 22 9 10 8 13 -1 13 -17 0 -4 13 16 16 10 2 14 -3 10 -12 -3 -8 -1 -14 4
-14 6 0 10 7 10 15 0 8 5 15 11 15 5 0 8 -4 5 -9 -3 -5 2 -15 11 -22 12 -10
14 -10 9 -1 -4 7 -2 12 6 12 9 0 9 3 -2 10 -8 5 -15 17 -15 27 0 10 -4 24 -9
32 -7 10 -6 12 4 6 9 -6 12 -4 8 7 -4 8 -2 21 3 29 8 12 10 12 8 -1 -3 -29 1
-36 20 -37 14 -1 18 3 14 15 -3 10 -1 13 4 7 12 -16 31 -12 46 9 16 22 39 13
31 -12 -5 -16 -5 -16 8 0 13 15 15 15 24 1 8 -14 11 -13 24 3 14 16 13 17 -2
11 -10 -3 -18 -2 -18 3 0 6 8 10 18 10 25 0 34 11 21 26 -7 8 -6 14 2 20 7 4
9 3 5 -4 -3 -6 -2 -13 4 -17 12 -8 53 19 43 29 -4 4 1 4 11 0 18 -7 17 -8 -1
-18 -20 -11 -21 -36 -2 -36 6 0 7 5 4 10 -3 6 -1 11 4 11 6 1 16 2 23 3 6 0
13 7 16 15 3 8 0 11 -7 7 -6 -4 -11 -3 -11 1 0 5 9 14 20 21 12 7 20 8 20 2 0
-5 -5 -10 -11 -10 -5 0 -7 -5 -4 -10 11 -17 33 7 33 35 0 25 -12 33 -21 15 -3
-6 -4 -5 -3 2 2 7 9 13 17 13 9 0 14 -11 14 -34 0 -20 6 -36 14 -39 9 -3 11 0
7 7 -4 7 -2 10 5 9 6 -2 14 3 16 10 3 8 -1 10 -11 6 -9 -3 -16 -1 -16 6 0 6 5
8 10 5 6 -3 10 -2 10 4 0 5 -6 12 -12 14 -7 3 2 4 20 2 22 -3 32 0 29 8 -2 7
-19 11 -38 10 -34 -2 -34 -2 -10 12 14 7 32 10 40 7 9 -3 12 -1 7 6 -5 8 -1
10 10 5 12 -4 15 -3 10 5 -5 8 -1 10 10 5 12 -4 15 -3 10 6 -5 7 4 16 26 25
18 8 53 29 77 46 24 18 41 27 37 22 -4 -6 2 -8 15 -5 14 4 17 8 9 13 -9 5 -9
9 -1 14 6 4 16 4 23 0 6 -4 8 -3 5 3 -4 6 8 24 26 40 58 52 119 127 148 184
23 46 28 67 25 112 -4 67 -29 110 -99 172 -130 114 -495 236 -810 271 -34 4
-61 13 -64 20 -2 7 0 44 6 81 5 37 13 91 17 118 3 28 11 53 16 56 5 3 75 7
155 8 159 2 208 13 279 62 53 36 98 93 128 161 31 71 30 181 -2 248 -64 129
-170 191 -337 194 -101 2 -136 15 -133 49 3 31 -24 88 -39 82 -7 -2 -12 1 -10
8 5 27 -182 95 -308 112 -84 11 -118 16 -155 21 -44 6 -465 15 -471 10z m456
-31 c28 -3 64 -8 80 -10 17 -3 44 -8 60 -10 65 -10 93 -17 165 -42 41 -15 82
-35 91 -45 9 -10 21 -18 27 -18 6 0 9 -12 6 -27 -8 -47 -15 -64 -25 -58 -5 4
-9 1 -9 -5 0 -12 -68 -45 -110 -54 -14 -3 -40 -9 -59 -15 -19 -6 -38 -8 -42
-5 -5 3 -9 1 -9 -4 0 -5 -6 -9 -12 -9 -17 -1 -97 -12 -128 -17 -56 -11 -175
-11 -173 0 1 6 -5 11 -12 11 -11 0 -12 -4 -4 -14 9 -10 2 -13 -40 -14 -67 -1
-120 -1 -123 0 -2 1 -57 3 -123 6 -66 3 -136 7 -155 10 -19 2 -57 7 -85 11
-67 8 -207 43 -221 55 -6 5 -14 6 -17 2 -4 -3 -9 1 -13 10 -3 9 -14 14 -24 12
-13 -3 -17 1 -13 11 3 8 1 14 -5 14 -6 0 -13 -6 -15 -12 -3 -7 -6 -1 -6 14 -1
15 -5 30 -11 33 -5 3 -10 12 -10 18 0 7 4 6 10 -3 9 -13 10 -13 10 1 0 45 152
117 280 133 25 3 55 8 68 10 12 3 59 8 105 12 45 3 84 8 86 10 5 5 399 -4 456
-11z m443 -110 c-3 -3 -9 2 -12 12 -6 14 -5 15 5 6 7 -7 10 -15 7 -18z m-1177
-250 c143 -24 243 -33 387 -34 100 -1 91 -16 -11 -17 -189 -3 -361 -37 -485
-95 -59 -27 -90 -31 -76 -8 3 5 2 9 -3 8 -4 -1 -14 -1 -22 0 -11 1 -11 4 0 18
12 14 12 16 0 8 -9 -5 -12 -4 -7 3 3 6 -2 15 -11 21 -10 6 -12 11 -5 11 14 0
12 21 -3 32 -6 5 -5 8 3 8 17 0 15 15 -4 34 -8 9 -11 16 -5 16 6 0 8 8 4 18
-5 14 -3 13 10 -3 8 -11 19 -17 23 -12 4 4 2 7 -4 7 -7 0 -12 5 -12 11 0 5 5
7 12 3 7 -4 8 -3 4 4 -4 7 -14 12 -22 12 -8 0 -13 4 -10 8 3 5 36 -2 74 -14
38 -13 111 -31 163 -39z m1549 16 c56 -26 103 -68 94 -84 -4 -7 -4 -9 1 -5 4
4 16 -2 26 -14 17 -19 20 -25 19 -43 -1 -3 6 -12 13 -20 9 -9 13 -30 11 -62
-4 -46 -10 -92 -14 -103 -1 -3 -2 -9 -1 -13 1 -5 -3 -6 -9 -2 -5 3 -10 -3 -10
-14 0 -10 -3 -27 -6 -35 -5 -14 -9 -14 -22 -4 -13 11 -14 10 -4 -8 10 -19 8
-24 -15 -40 -15 -9 -33 -17 -41 -17 -8 0 -12 -8 -9 -19 4 -16 3 -17 -9 -7 -7
6 -11 16 -7 22 3 6 1 7 -6 3 -6 -4 -9 -12 -6 -17 4 -5 0 -9 -7 -9 -9 0 -9 -3
2 -10 11 -7 6 -8 -17 -5 -18 2 -33 0 -33 -3 0 -10 -113 -8 -129 2 -10 6 -12 6
-7 -2 4 -7 1 -12 -8 -12 -9 0 -16 6 -17 13 0 10 -2 10 -6 0 -2 -7 -9 -13 -15
-13 -6 0 -8 7 -5 15 4 8 2 17 -4 20 -5 4 -9 3 -8 -2 4 -21 -3 -29 -26 -31 -14
-1 -25 4 -25 11 0 8 -3 9 -8 1 -8 -13 -42 -15 -42 -2 0 4 5 8 10 8 6 0 10 5
10 11 0 5 -5 7 -11 3 -7 -4 -10 -1 -7 7 2 8 17 16 33 17 27 3 28 2 15 -15 -14
-17 -14 -17 6 0 23 19 50 22 59 7 5 -8 12 -7 23 2 12 10 16 10 19 1 3 -7 9
-13 14 -13 6 0 7 4 4 10 -3 5 13 9 39 8 28 0 56 6 72 16 14 10 32 15 40 12 8
-3 12 -2 9 3 -3 6 0 13 7 18 8 4 26 24 42 43 16 19 33 34 38 32 5 -1 7 2 4 7
-11 17 6 71 23 72 12 0 11 2 -4 9 -11 5 -15 9 -10 9 13 1 15 41 2 41 -4 0 -5
5 -2 10 3 6 1 10 -6 10 -6 0 -9 8 -6 20 3 11 2 18 -3 15 -12 -7 -33 23 -24 36
4 7 3 10 -2 6 -5 -3 -27 3 -49 13 -22 10 -44 16 -49 13 -5 -4 -6 0 -1 7 6 10
3 12 -14 7 -19 -5 -20 -3 -9 10 11 14 8 14 -20 -1 l-33 -17 16 28 c10 17 11
21 3 11 -9 -10 -24 -16 -37 -13 -12 2 -19 0 -16 -6 4 -5 1 -9 -4 -9 -6 0 -11
3 -11 8 0 4 -12 8 -27 9 -19 1 -22 -1 -12 -8 11 -7 11 -9 -3 -9 -9 0 -22 8
-28 18 -11 16 -11 16 -6 0 6 -21 -19 -25 -26 -5 -8 20 2 36 20 30 10 -3 8 1
-6 11 -12 10 -20 21 -17 25 2 5 57 7 122 6 96 -2 127 -7 163 -24z m-419 -1 c6
0 7 5 3 12 -5 7 -3 8 6 3 10 -6 9 -11 -5 -22 -14 -10 -15 -13 -4 -14 10 0 11
-2 1 -6 -9 -4 -10 -8 -2 -18 8 -10 8 -15 -1 -21 -8 -5 -9 -3 -4 6 6 9 4 11 -4
6 -7 -5 -10 -14 -7 -22 7 -19 -4 -45 -16 -38 -6 4 -5 -2 1 -14 6 -11 11 -23
11 -25 0 -8 -36 -1 -120 25 -47 14 -103 30 -125 34 -22 4 -44 8 -50 9 -29 6
-131 17 -210 21 -105 7 -124 14 -39 15 32 0 75 2 94 4 245 20 242 20 340 35
41 7 80 13 87 14 7 1 16 5 20 10 4 4 9 2 11 -3 2 -6 8 -11 13 -11z m-631 -54
c0 -3 -4 -8 -10 -11 -5 -3 -10 -1 -10 4 0 6 5 11 10 11 6 0 10 -2 10 -4z m751
-43 c13 -16 12 -17 -3 -4 -17 13 -22 21 -14 21 2 0 10 -8 17 -17z m74 -3 c3
-6 -1 -7 -9 -4 -18 7 -21 14 -7 14 6 0 13 -4 16 -10z m140 0 c3 -6 -1 -7 -9
-4 -18 7 -21 14 -7 14 6 0 13 -4 16 -10z m-1656 -84 c8 -10 9 -16 1 -21 -5 -3
-10 0 -10 9 0 8 -6 17 -12 19 -8 4 -9 6 -2 6 6 1 17 -5 23 -13z m1771 -26 c0
-5 -5 -10 -11 -10 -5 0 -7 5 -4 10 3 6 8 10 11 10 2 0 4 -4 4 -10z m-347 -25
c4 -8 3 -16 -1 -19 -4 -3 -9 4 -9 15 -2 23 3 25 10 4z m7 -75 c0 -5 -7 -10
-15 -10 -8 0 -15 5 -15 10 0 6 7 10 15 10 8 0 15 -4 15 -10z m-7 -56 c14 -17
15 -21 2 -21 -8 0 -15 4 -15 8 0 4 -3 16 -7 26 -3 10 -4 16 -2 13 2 -3 12 -14
22 -26z m-2110 -1393 c-1 -34 1 -39 18 -38 10 1 19 6 19 12 1 15 24 -28 25
-45 0 -8 9 -15 20 -15 30 0 44 -13 40 -34 -4 -20 20 -37 30 -21 4 7 34 7 43 0
2 -3 16 -6 29 -9 4 0 2 -6 -5 -13 -6 -6 -8 -17 -4 -23 4 -6 0 -4 -8 6 -9 9
-27 15 -43 13 -15 -1 -29 2 -33 7 -3 5 -10 7 -15 3 -5 -3 -16 0 -24 6 -8 6
-20 8 -27 4 -10 -5 -10 -4 -1 6 10 11 9 17 -4 32 -9 10 -12 18 -8 18 5 0 0 7
-11 16 -10 8 -13 12 -5 8 9 -5 12 -3 7 5 -4 6 -12 8 -18 5 -7 -5 -8 -2 -3 6 6
9 4 11 -4 6 -9 -6 -8 -13 6 -28 13 -16 15 -22 5 -25 -10 -4 -10 -8 0 -21 11
-13 11 -14 -1 -7 -11 6 -13 4 -8 -7 4 -11 -1 -15 -19 -15 -13 0 -24 4 -24 9 0
5 4 7 9 4 5 -3 12 1 15 9 4 13 2 14 -14 5 -11 -6 -20 -15 -20 -20 0 -6 -5 -10
-10 -10 -7 0 -7 7 0 21 9 16 8 25 -6 40 -17 19 -17 20 0 37 17 16 18 16 12 -4
-4 -12 0 -28 10 -40 8 -10 12 -13 8 -5 -5 10 -1 11 14 7 30 -10 35 9 7 24 -14
7 -25 17 -25 22 0 5 5 6 11 2 7 -4 7 1 -1 16 -10 18 -9 21 1 15 7 -5 10 -4 6
3 -5 7 -14 7 -31 -1 -14 -7 -20 -15 -14 -18 7 -4 7 -9 0 -13 -5 -3 -14 0 -20
7 -6 8 -3 18 11 32 11 11 16 13 12 5 -5 -8 3 -3 18 13 14 15 28 27 29 27 2 0
3 -18 1 -39z m7 -85 c0 -2 -9 -2 -20 1 -11 3 -20 9 -20 15 0 5 9 4 20 -2 11
-6 20 -12 20 -14z m2403 -7 c-8 -8 -13 -7 -18 2 -5 8 -4 10 3 5 7 -4 12 -2 12
5 0 7 3 9 7 6 4 -4 2 -12 -4 -18z m-2101 -3 c7 4 8 2 4 -5 -9 -13 -26 -5 -25
12 0 9 2 8 6 -1 2 -6 10 -9 15 -6z m79 -3 c13 -17 13 -17 -6 -3 -11 8 -22 16
-24 17 -2 2 0 3 6 3 6 0 17 -8 24 -17z m1969 13 c0 -2 -7 -7 -16 -10 -8 -3
-12 -2 -9 4 6 10 25 14 25 6z m-40 -10 c0 -2 -8 -10 -17 -17 -16 -13 -17 -12
-4 4 13 16 21 21 21 13z m-1885 -26 c-3 -4 0 -11 5 -13 6 -3 5 -4 -1 -3 -7 1
-13 10 -15 19 -1 9 2 15 7 11 5 -3 7 -9 4 -14z m1841 1 c-4 -5 0 -11 6 -14 7
-3 3 -4 -9 -4 -17 1 -19 4 -11 14 12 15 22 18 14 4z m-1869 -7 c-3 -3 -12 -4
-19 -1 -8 3 -5 6 6 6 11 1 17 -2 13 -5z m73 -25 c0 -5 -4 -9 -8 -9 -5 0 -9 7
-9 15 0 8 4 12 9 9 4 -3 8 -9 8 -15z m1760 17 c0 -2 -8 -10 -17 -17 -16 -13
-17 -12 -4 4 13 16 21 21 21 13z m-1685 -15 c3 -5 2 -12 -3 -15 -5 -3 -9 1 -9
9 0 17 3 19 12 6z m1636 -14 c-10 -9 -11 -8 -5 6 3 10 9 15 12 12 3 -3 0 -11
-7 -18z m-1674 -12 c-9 -9 -14 -10 -19 -1 -4 6 -8 8 -9 4 -9 -46 -2 -54 22
-27 10 12 19 18 19 13 0 -6 -5 -15 -12 -22 -9 -9 -9 -12 -1 -12 7 0 15 5 18
10 4 6 11 8 16 5 8 -6 13 9 10 28 -1 5 3 6 8 2 6 -3 8 -12 4 -20 -4 -11 -1
-13 11 -9 9 3 16 1 16 -6 0 -6 -4 -9 -9 -6 -9 6 -48 -32 -43 -42 2 -4 -1 -8
-7 -10 -6 -2 -14 3 -17 12 -3 9 -10 13 -15 10 -5 -3 -12 2 -15 11 -5 12 -9 13
-20 4 -8 -6 -14 -8 -15 -3 0 5 -2 17 -4 26 -2 12 2 15 13 11 10 -4 14 -3 10 2
-11 12 7 30 31 32 17 1 18 -1 8 -12z m1646 0 c-3 -9 -8 -14 -10 -11 -3 3 -2 9
2 15 9 16 15 13 8 -4z m-2043 -9 c0 -3 -4 -8 -10 -11 -5 -3 -10 -1 -10 4 0 6
5 11 10 11 6 0 10 -2 10 -4z m630 -2 c0 -8 -19 -13 -24 -6 -3 5 1 9 9 9 8 0
15 -2 15 -3z m90 -4 c0 -5 -5 -10 -11 -10 -5 0 -7 5 -4 10 3 6 8 10 11 10 2 0
4 -4 4 -10z m-560 -14 c0 -3 -4 -8 -10 -11 -5 -3 -10 -1 -10 4 0 6 5 11 10 11
6 0 10 -2 10 -4z m137 -3 c-4 -3 -1 -13 6 -22 11 -14 10 -14 -5 -2 -16 12 -16
31 -1 31 4 0 3 -3 0 -7z m465 -15 c-5 -21 -17 -23 -28 -6 -5 7 -3 8 6 3 9 -6
12 -4 8 7 -4 8 -1 15 7 15 7 0 10 -8 7 -19z m254 -3 c1 -8 -2 -13 -7 -9 -9 5
-13 -9 -10 -33 1 -7 -3 -13 -8 -13 -6 0 -20 -10 -32 -22 -12 -13 -19 -18 -15
-11 3 6 2 14 -3 18 -6 3 -8 13 -5 23 3 9 -2 6 -10 -8 -8 -14 -15 -21 -16 -17
0 4 -9 3 -19 -3 -15 -8 -22 -7 -29 6 -8 14 -10 14 -22 0 -11 -15 -14 -15 -27
1 -14 17 -14 17 -9 1 8 -28 -13 -21 -26 7 -10 22 -13 23 -20 10 -5 -8 -13 -13
-18 -10 -4 3 -10 -2 -14 -10 -3 -8 -11 -15 -17 -15 -8 0 -7 5 2 17 8 10 9 14
2 10 -6 -4 -14 -3 -18 3 -3 5 1 10 9 10 10 0 13 7 11 21 -4 21 -4 21 15 4 15
-14 23 -15 34 -6 10 9 16 9 21 1 5 -8 15 -4 33 12 14 13 22 17 18 11 -4 -7 -3
-13 3 -13 5 0 12 5 14 10 3 6 4 5 3 -2 -2 -7 -11 -12 -20 -12 -9 1 -15 -3 -13
-9 4 -12 37 -19 37 -7 0 4 7 11 16 14 8 3 12 2 9 -4 -3 -6 -2 -10 3 -10 17 0
22 13 9 29 -11 14 -10 14 5 2 10 -7 15 -17 13 -22 -3 -4 4 -7 15 -6 14 1 19 6
15 17 -3 9 1 8 10 -4 8 -11 15 -24 15 -29 0 -4 5 -5 10 -2 8 5 7 12 -2 23 -8
9 -8 13 -2 9 12 -7 29 20 25 38 -2 6 1 6 5 2 4 -4 9 -14 10 -22z m519 16 c3
-5 2 -12 -3 -15 -5 -3 -9 1 -9 9 0 17 3 19 12 6z m449 -23 c-3 -4 0 -8 7 -8
18 0 5 -10 -19 -15 -16 -3 -20 1 -17 16 6 32 16 43 26 28 4 -7 5 -17 3 -21z
m-1187 7 c0 -8 -4 -12 -9 -9 -4 3 -8 9 -8 15 0 5 4 9 8 9 5 0 9 -7 9 -15z
m524 -2 c13 -16 12 -17 -3 -4 -17 13 -22 21 -14 21 2 0 10 -8 17 -17z m149 2
c-14 -17 -30 -20 -30 -4 0 5 4 8 9 4 5 -3 12 -1 16 5 3 5 9 10 12 10 3 0 0 -7
-7 -15z m-220 -15 c6 -11 8 -20 6 -20 -3 0 -10 9 -16 20 -6 11 -8 20 -6 20 3
0 10 -9 16 -20z m356 2 c1 -7 0 -8 -3 -2 -2 5 -9 8 -14 4 -5 -3 -9 0 -9 6 0
15 23 7 26 -8z m66 -22 c5 0 6 5 3 10 -3 6 -1 10 5 10 7 0 10 -7 7 -15 -4 -8
-2 -17 3 -20 6 -4 10 1 10 9 0 9 5 16 10 16 6 0 9 -5 8 -12 -4 -16 50 -18 56
-1 6 16 -10 18 -20 2 -4 -8 -9 -8 -18 1 -8 8 -7 13 4 20 8 5 18 6 22 3 5 -2
16 1 25 9 13 10 17 10 20 0 3 -6 10 -9 16 -5 7 4 4 -4 -5 -19 -11 -16 -13 -29
-7 -35 6 -6 -5 -9 -31 -9 -22 0 -40 4 -40 9 0 5 -7 4 -15 -3 -12 -10 -18 -10
-30 0 -14 12 -20 5 -17 -22 3 -19 -30 -14 -46 7 -11 13 -23 21 -27 17 -4 -4
-1 5 6 20 10 23 15 26 27 16 13 -11 14 -9 8 12 -6 25 -6 25 5 3 7 -13 16 -23
21 -23z m48 28 c0 -4 -4 -8 -9 -8 -6 0 -12 4 -15 8 -3 5 1 9 9 9 8 0 15 -4 15
-9z m-530 -2 c0 -2 -7 -7 -16 -10 -8 -3 -12 -2 -9 4 6 10 25 14 25 6z m-109
-27 c9 -17 13 -18 25 -8 13 10 17 10 25 -2 6 -10 9 -10 9 -1 0 6 5 12 12 12 6
0 1 -11 -12 -25 -12 -13 -28 -21 -34 -17 -6 4 -20 7 -31 7 -11 0 -26 4 -32 8
-7 5 -17 6 -21 3 -4 -2 -8 4 -8 14 0 18 2 18 18 3 19 -17 26 -5 8 13 -6 6 -3
10 10 11 11 1 25 -7 31 -18z m194 -57 c-3 -3 -11 0 -18 7 -9 10 -8 11 6 5 10
-3 15 -9 12 -12z m45 8 c0 -5 -4 -10 -10 -10 -5 0 -10 5 -10 10 0 6 5 10 10
10 6 0 10 -4 10 -10z m35 0 c3 -5 2 -10 -4 -10 -5 0 -13 5 -16 10 -3 6 -2 10
4 10 5 0 13 -4 16 -10z m80 0 c-3 -5 -11 -10 -16 -10 -6 0 -7 5 -4 10 3 6 11
10 16 10 6 0 7 -4 4 -10z"/>
<path d="M2274 3816 c1 -8 5 -18 8 -22 4 -3 5 1 4 10 -1 8 -5 18 -8 22 -4 3
-5 -1 -4 -10z"/>
<path d="M2486 3822 c-3 -5 1 -9 9 -9 8 0 12 4 9 9 -3 4 -7 8 -9 8 -2 0 -6 -4
-9 -8z"/>
<path d="M2655 3821 c-3 -5 -2 -12 3 -15 5 -3 9 1 9 9 0 17 -3 19 -12 6z"/>
<path d="M2230 3802 c0 -5 7 -9 15 -9 8 0 12 4 9 9 -3 4 -9 8 -15 8 -5 0 -9
-4 -9 -8z"/>
<path d="M2415 3789 c-4 -6 -5 -12 -2 -15 2 -3 7 2 10 11 7 17 1 20 -8 4z"/>
<path d="M2936 3787 c3 -10 9 -15 12 -12 3 3 0 11 -7 18 -10 9 -11 8 -5 -6z"/>
<path d="M2066 3778 c3 -5 10 -6 15 -3 13 9 11 12 -6 12 -8 0 -12 -4 -9 -9z"/>
<path d="M2027 3759 c7 -7 15 -10 18 -7 3 3 -2 9 -12 12 -14 6 -15 5 -6 -5z"/>
<path d="M2987 3759 c7 -7 15 -10 18 -7 3 3 -2 9 -12 12 -14 6 -15 5 -6 -5z"/>
<path d="M1950 3756 c0 -2 8 -10 18 -17 15 -13 16 -12 3 4 -13 16 -21 21 -21
13z"/>
<path d="M2295 3751 c-3 -5 -2 -12 3 -15 5 -3 9 1 9 9 0 17 -3 19 -12 6z"/>
<path d="M2435 3751 c-3 -5 -2 -12 3 -15 5 -3 9 1 9 9 0 17 -3 19 -12 6z"/>
<path d="M2959 3758 c-5 -18 -6 -38 -1 -34 7 8 12 36 6 36 -2 0 -4 -1 -5 -2z"/>
<path d="M2545 3739 c-3 -4 2 -6 10 -5 21 3 28 13 10 13 -9 0 -18 -4 -20 -8z"/>
<path d="M2599 3748 c-5 -18 -6 -38 -1 -34 7 8 12 36 6 36 -2 0 -4 -1 -5 -2z"/>
<path d="M2874 3716 c1 -8 5 -18 8 -22 4 -3 5 1 4 10 -1 8 -5 18 -8 22 -4 3
-5 -1 -4 -10z"/>
<path d="M2081 3696 c-9 -11 -9 -16 1 -22 7 -4 10 -4 6 1 -4 4 -3 14 3 22 6 7
9 13 6 13 -2 0 -10 -6 -16 -14z"/>
<path d="M2456 3698 c3 -5 10 -6 15 -3 13 9 11 12 -6 12 -8 0 -12 -4 -9 -9z"/>
<path d="M2775 3699 c-3 -4 2 -6 10 -5 21 3 28 13 10 13 -9 0 -18 -4 -20 -8z"/>
<path d="M2120 3680 c-9 -6 -10 -10 -3 -10 6 0 15 5 18 10 8 12 4 12 -15 0z"/>
<path d="M3107 3679 c7 -7 15 -10 18 -7 3 3 -2 9 -12 12 -14 6 -15 5 -6 -5z"/>
<path d="M2195 3669 c-4 -6 -5 -12 -2 -15 2 -3 7 2 10 11 7 17 1 20 -8 4z"/>
<path d="M2573 3665 c0 -8 4 -12 9 -9 5 3 6 10 3 15 -9 13 -12 11 -12 -6z"/>
<path d="M1810 3660 c0 -5 5 -10 11 -10 5 0 7 5 4 10 -3 6 -8 10 -11 10 -2 0
-4 -4 -4 -10z"/>
<path d="M2046 3658 c3 -5 9 -7 12 -4 3 3 12 0 21 -6 13 -10 14 -10 4 2 -15
16 -46 23 -37 8z"/>
<path d="M2246 3662 c-3 -5 1 -9 9 -9 8 0 12 4 9 9 -3 4 -7 8 -9 8 -2 0 -6 -4
-9 -8z"/>
<path d="M2376 3658 c3 -4 11 -5 19 -1 21 7 19 12 -4 10 -11 0 -18 -5 -15 -9z"/>
<path d="M2485 3659 c-3 -4 2 -6 10 -5 21 3 28 13 10 13 -9 0 -18 -4 -20 -8z"/>
<path d="M2535 3661 c-3 -5 -2 -12 3 -15 5 -3 9 1 9 9 0 17 -3 19 -12 6z"/>
<path d="M2605 3659 c-3 -4 2 -6 10 -5 21 3 28 13 10 13 -9 0 -18 -4 -20 -8z"/>
<path d="M2755 3661 c-3 -5 -2 -12 3 -15 5 -3 9 1 9 9 0 17 -3 19 -12 6z"/>
<path d="M3025 3660 c-3 -6 1 -7 9 -4 18 7 21 14 7 14 -6 0 -13 -4 -16 -10z"/>
<path d="M3176 3653 c-6 -14 -5 -15 5 -6 7 7 10 15 7 18 -3 3 -9 -2 -12 -12z"/>
<path d="M2155 3651 c-3 -5 -2 -12 3 -15 5 -3 9 1 9 9 0 17 -3 19 -12 6z"/>
<path d="M1945 3640 c-3 -6 1 -7 9 -4 18 7 21 14 7 14 -6 0 -13 -4 -16 -10z"/>
<path d="M2905 3640 c-3 -6 1 -7 9 -4 18 7 21 14 7 14 -6 0 -13 -4 -16 -10z"/>
<path d="M2953 3643 c4 -3 1 -13 -6 -22 -11 -14 -10 -14 5 -2 16 12 16 31 1
31 -4 0 -3 -3 0 -7z"/>
<path d="M2646 3622 c-3 -5 1 -9 9 -9 8 0 12 4 9 9 -3 4 -7 8 -9 8 -2 0 -6 -4
-9 -8z"/>
<path d="M2730 3621 c0 -6 4 -13 10 -16 6 -3 7 1 4 9 -7 18 -14 21 -14 7z"/>
<path d="M2519 3608 c-5 -18 -6 -38 -1 -34 7 8 12 36 6 36 -2 0 -4 -1 -5 -2z"/>
<path d="M2856 3587 c3 -10 9 -15 12 -12 3 3 0 11 -7 18 -10 9 -11 8 -5 -6z"/>
<path d="M2033 3571 c0 -11 5 -18 9 -15 4 3 5 11 1 19 -7 21 -12 19 -10 -4z"/>
<path d="M2216 3578 c3 -5 10 -6 15 -3 13 9 11 12 -6 12 -8 0 -12 -4 -9 -9z"/>
<path d="M2545 3579 c-3 -4 2 -6 10 -5 21 3 28 13 10 13 -9 0 -18 -4 -20 -8z"/>
<path d="M2806 3578 c3 -5 10 -6 15 -3 13 9 11 12 -6 12 -8 0 -12 -4 -9 -9z"/>
<path d="M3006 3578 c3 -5 10 -6 15 -3 13 9 11 12 -6 12 -8 0 -12 -4 -9 -9z"/>
<path d="M2590 3559 c0 -5 5 -7 10 -4 6 3 10 8 10 11 0 2 -4 4 -10 4 -5 0 -10
-5 -10 -11z"/>
<path d="M2625 3559 c-3 -4 2 -6 10 -5 21 3 28 13 10 13 -9 0 -18 -4 -20 -8z"/>
<path d="M2935 3560 c3 -5 8 -10 11 -10 2 0 4 5 4 10 0 6 -5 10 -11 10 -5 0
-7 -4 -4 -10z"/>
<path d="M2413 3531 c0 -11 5 -18 9 -15 4 3 5 11 1 19 -7 21 -12 19 -10 -4z"/>
<path d="M2696 3538 c3 -4 11 -5 19 -1 21 7 19 12 -4 10 -11 0 -18 -5 -15 -9z"/>
<path d="M2530 3519 c0 -5 5 -7 10 -4 6 3 10 8 10 11 0 2 -4 4 -10 4 -5 0 -10
-5 -10 -11z"/>
<path d="M1826 3465 c3 -8 13 -11 22 -8 14 5 14 2 -3 -18 -11 -13 -13 -18 -4
-11 9 6 18 9 22 6 3 -3 4 2 3 12 -1 9 -12 21 -24 25 -16 6 -20 5 -16 -6z"/>
<path d="M1830 3406 c0 -2 7 -6 15 -10 8 -3 15 -1 15 4 0 6 -7 10 -15 10 -8 0
-15 -2 -15 -4z"/>
<path d="M1830 3386 c0 -3 9 -10 20 -16 11 -6 20 -8 20 -6 0 3 -9 10 -20 16
-11 6 -20 8 -20 6z"/>
<path d="M3513 3475 c0 -8 4 -12 9 -9 5 3 6 10 3 15 -9 13 -12 11 -12 -6z"/>
<path d="M3557 3439 c7 -7 15 -10 18 -7 3 3 -2 9 -12 12 -14 6 -15 5 -6 -5z"/>
<path d="M3613 3415 c0 -8 4 -12 9 -9 5 3 6 10 3 15 -9 13 -12 11 -12 -6z"/>
<path d="M3706 3338 c3 -5 10 -6 15 -3 13 9 11 12 -6 12 -8 0 -12 -4 -9 -9z"/>
<path d="M3735 3240 c-3 -5 -1 -10 4 -10 6 0 11 5 11 10 0 6 -2 10 -4 10 -3 0
-8 -4 -11 -10z"/>
<path d="M3650 3116 c0 -2 8 -10 18 -17 15 -13 16 -12 3 4 -13 16 -21 21 -21
13z"/>
<path d="M3675 3069 c-4 -6 -4 -13 -1 -16 3 -4 6 -1 6 6 0 7 5 9 12 5 7 -4 8
-3 4 4 -9 15 -13 15 -21 1z"/>
<path d="M3613 3053 c0 -9 4 -10 14 -2 7 6 13 12 13 14 0 1 -6 2 -13 2 -8 0
-14 -6 -14 -14z"/>
<path d="M3579 3038 c-5 -18 -6 -38 -1 -34 7 8 12 36 6 36 -2 0 -4 -1 -5 -2z"/>
<path d="M3319 2993 c-13 -16 -12 -17 4 -4 16 13 21 21 13 21 -2 0 -10 -8 -17
-17z"/>
<path d="M3525 3000 c-3 -6 1 -7 9 -4 18 7 21 14 7 14 -6 0 -13 -4 -16 -10z"/>
<path d="M2996 3427 c3 -10 9 -15 12 -12 3 3 0 11 -7 18 -10 9 -11 8 -5 -6z"/>
<path d="M1236 1628 c3 -4 10 -6 15 -3 5 4 10 1 10 -4 1 -6 2 -16 3 -23 0 -6
8 -13 16 -15 12 -4 12 -3 1 5 -11 8 -11 10 0 15 10 4 10 6 2 6 -7 1 -13 6 -13
12 0 5 6 7 13 3 6 -4 8 -3 4 2 -10 11 -58 14 -51 2z"/>
<path d="M1700 1505 c-7 -9 -5 -16 7 -26 10 -7 15 -9 10 -4 -4 4 0 16 8 25 13
15 13 17 0 17 -8 0 -20 -6 -25 -12z"/>
<path d="M2013 1467 c0 -8 6 -14 14 -14 9 0 10 4 2 14 -6 7 -12 13 -14 13 -1
0 -2 -6 -2 -13z"/>
<path d="M2066 1467 c3 -10 12 -16 19 -13 7 2 18 -1 24 -7 8 -8 14 -8 24 2 10
10 9 11 -5 6 -11 -5 -18 -2 -18 5 0 7 -6 10 -14 7 -7 -3 -19 0 -25 6 -9 9 -11
8 -5 -6z"/>
<path d="M2155 1460 c-3 -5 -5 -10 -3 -11 36 -9 71 2 49 15 -6 4 -11 2 -11 -5
0 -9 -3 -9 -14 0 -10 8 -16 9 -21 1z"/>
<path d="M2236 1455 c-3 -8 -1 -15 4 -15 6 0 10 7 10 15 0 8 -2 15 -4 15 -2 0
-6 -7 -10 -15z"/>
<path d="M3255 1501 c-3 -5 -2 -12 3 -15 5 -3 9 1 9 9 0 17 -3 19 -12 6z"/>
<path d="M3075 1490 c-3 -5 -1 -10 5 -10 7 0 5 -7 -4 -16 -23 -22 -20 -30 3
-10 11 10 17 24 14 32 -6 17 -10 17 -18 4z"/>
<path d="M2910 1459 c0 -5 5 -7 12 -3 7 5 9 2 5 -9 -3 -8 1 -21 9 -27 10 -9
14 -9 14 -1 0 6 -4 11 -10 11 -5 0 -7 7 -3 16 4 11 8 12 13 4 5 -9 9 -9 14 -1
4 6 4 11 -1 12 -4 0 -18 2 -30 5 -13 2 -23 -1 -23 -7z"/>
<path d="M2344 1462 c0 -10 8 -18 17 -18 13 0 14 4 5 18 -6 10 -13 18 -16 18
-3 0 -6 -8 -6 -18z"/>
<path d="M2396 1451 c-4 -5 -2 -12 3 -15 5 -4 12 -2 15 3 4 5 2 12 -3 15 -5 4
-12 2 -15 -3z"/>
<path d="M4076 1938 c3 -5 10 -6 15 -3 13 9 11 12 -6 12 -8 0 -12 -4 -9 -9z"/>
<path d="M3980 1880 c-8 -5 -10 -10 -5 -10 6 0 17 5 25 10 8 5 11 10 5 10 -5
0 -17 -5 -25 -10z"/>
<path d="M995 1840 c-3 -5 -1 -10 4 -10 6 0 11 5 11 10 0 6 -2 10 -4 10 -3 0
-8 -4 -11 -10z"/>
<path d="M1073 1790 c1 -21 10 -18 13 5 1 8 -2 15 -6 15 -5 0 -8 -9 -7 -20z"/>
<path d="M3880 1800 c-13 -8 -13 -10 2 -10 9 0 20 5 23 10 8 13 -5 13 -25 0z"/>
<path d="M977 1793 c-10 -9 -9 -23 1 -23 5 0 9 7 9 15 0 17 -1 18 -10 8z"/>
<path d="M3906 1775 c-9 -14 -12 -25 -6 -25 5 0 10 5 10 10 0 6 8 10 18 11 10
0 12 3 4 6 -6 2 -10 9 -6 14 13 21 -5 7 -20 -16z"/>
<path d="M3950 1796 c0 -2 6 -9 14 -15 11 -9 16 -9 22 0 4 8 3 9 -4 5 -7 -4
-12 -2 -12 3 0 6 -4 11 -10 11 -5 0 -10 -2 -10 -4z"/>
<path d="M895 1780 c3 -5 8 -10 11 -10 2 0 4 5 4 10 0 6 -5 10 -11 10 -5 0 -7
-4 -4 -10z"/>
<path d="M3858 1780 c19 -22 14 -35 -7 -16 -16 15 -20 15 -31 2 -6 -9 -15 -15
-18 -14 -4 0 -14 0 -22 -1 -13 -1 -13 -3 0 -10 8 -6 18 -7 24 -4 5 4 6 1 1 -7
-5 -8 -4 -11 2 -7 7 4 10 -7 8 -31 -2 -23 3 -44 14 -57 14 -17 14 -18 0 -7 -9
6 -20 8 -24 4 -5 -4 -4 0 0 8 8 13 7 13 -11 0 -15 -11 -16 -11 -6 0 25 28 11
27 -19 -1 -28 -26 -33 -27 -43 -14 -10 14 -14 13 -35 -9 -23 -25 -48 -36 -36
-17 13 22 -14 19 -39 -4 -14 -13 -26 -19 -26 -13 0 7 -7 3 -15 -8 -15 -18 -15
-19 -29 0 -14 17 -17 17 -49 -19 -23 -25 -37 -33 -42 -26 -5 9 -10 9 -20 1
-15 -12 -30 3 -20 20 3 6 2 10 -3 10 -5 0 -15 -12 -22 -27 -8 -17 -14 -23 -17
-15 -4 10 -8 10 -19 1 -8 -6 -12 -15 -9 -19 3 -4 -1 -10 -9 -13 -9 -4 -12 0
-9 12 3 11 -1 18 -10 18 -19 0 -14 -31 7 -53 9 -8 16 -20 16 -24 0 -5 11 -4
25 2 19 9 24 16 19 32 -7 21 -6 21 15 2 21 -19 30 -43 11 -31 -18 11 -24 -26
-6 -41 9 -8 11 -9 6 -2 -13 15 -13 41 -1 33 16 -9 24 15 11 30 -9 11 -9 15 -1
15 6 0 14 -7 17 -15 6 -15 9 -13 50 24 9 8 27 16 40 17 20 2 22 0 12 -16 -9
-14 -16 -16 -25 -8 -8 7 -13 7 -13 0 0 -20 30 -21 43 -2 8 11 17 17 21 12 4
-4 6 -1 4 7 -2 7 3 16 10 18 8 3 10 -1 6 -11 -7 -17 11 -22 21 -6 3 6 11 10
18 10 8 0 8 -3 -1 -12 -7 -7 -12 -17 -12 -22 0 -6 7 -2 15 8 8 10 12 23 9 27
-3 5 -1 9 5 9 6 0 15 -9 21 -20 9 -17 14 -18 30 -8 18 12 18 12 -1 26 -28 20
-23 35 6 16 27 -17 50 -10 41 13 -4 10 -2 13 8 10 20 -8 27 3 16 23 -7 13 -6
20 5 24 8 3 17 1 20 -4 4 -6 1 -10 -5 -10 -7 0 -9 -8 -5 -20 4 -13 1 -22 -9
-26 -9 -3 -16 -11 -16 -17 0 -5 8 -3 18 6 26 24 39 21 17 -3 -10 -11 -15 -20
-11 -20 4 0 19 14 33 30 27 33 43 31 44 -3 0 -12 3 -16 6 -9 3 7 1 20 -3 30
-4 9 -7 20 -6 24 1 4 -7 10 -18 13 -11 4 -18 11 -14 16 3 5 10 6 16 3 5 -3 29
-7 53 -9 38 -2 42 -1 29 12 -8 8 -14 20 -14 26 0 7 8 3 17 -8 11 -14 14 -15
10 -4 -7 20 10 39 34 39 10 0 21 5 25 11 4 8 0 9 -15 4 -17 -5 -20 -3 -15 12
3 10 -2 5 -11 -10 -9 -15 -20 -25 -25 -22 -14 8 -12 26 1 23 6 -2 14 3 16 10
3 7 -3 12 -14 12 -13 0 -14 3 -5 8 9 6 5 12 -14 20 -18 9 -24 17 -19 29 3 10
3 14 -1 10 -4 -4 -14 -1 -23 5 -13 10 -14 10 -3 -2z m21 -44 c18 4 29 -10 26
-34 -2 -15 2 -33 9 -41 8 -11 8 -13 -1 -8 -6 4 -14 3 -18 -3 -4 -6 -10 -8 -15
-5 -5 3 -12 -4 -15 -16 -7 -21 -7 -21 -24 5 -10 15 -17 42 -16 61 2 20 -1 38
-7 41 -5 3 -4 12 3 20 10 13 15 12 31 -3 11 -10 23 -17 27 -17z m-163 -115
c-9 -13 20 -21 32 -9 6 6 24 11 41 13 25 2 29 0 21 -10 -8 -10 -7 -16 7 -23
10 -6 14 -14 10 -18 -5 -5 -13 -2 -18 6 -8 11 -8 8 -3 -10 6 -22 5 -23 -10
-11 -11 10 -14 17 -7 24 18 18 -7 39 -30 26 -15 -8 -17 -14 -9 -28 7 -15 6
-18 -8 -17 -11 1 -16 -5 -14 -16 4 -22 -2 -22 -32 -2 -30 19 -45 1 -21 -26 10
-11 12 -20 6 -24 -5 -4 -12 3 -16 14 -7 24 -23 25 -51 6 -18 -13 -20 -12 -21
4 -1 13 4 18 18 15 12 -3 17 0 13 7 -4 6 -3 8 3 5 6 -4 19 0 29 8 10 8 14 15
7 15 -6 0 -15 -5 -18 -10 -5 -8 -11 -7 -21 1 -11 9 -14 8 -14 -6 0 -15 -2 -16
-17 -4 -9 8 -14 9 -10 3 4 -6 -2 -19 -13 -29 -14 -12 -20 -14 -20 -5 0 10 -3
10 -15 0 -9 -7 -18 -10 -22 -7 -3 4 -20 -5 -36 -19 -28 -24 -32 -24 -43 -9 -8
11 -14 13 -19 5 -5 -8 -11 -8 -21 1 -14 11 -16 9 -18 -21 -1 -8 -9 -16 -20
-18 -11 -3 -16 0 -11 7 3 6 11 8 17 5 7 -4 8 -2 4 4 -4 6 -14 9 -24 6 -9 -3
-6 1 7 9 13 8 20 16 15 19 -5 3 -4 3 3 2 6 -2 17 4 24 12 8 10 15 11 24 4 10
-8 15 -8 20 0 5 8 10 9 18 1 7 -7 21 -1 45 20 27 24 37 28 48 18 11 -9 17 -9
29 1 8 7 15 9 15 4 0 -5 7 0 15 10 8 11 15 14 15 7 0 -7 5 -9 10 -6 6 4 8 10
5 15 -3 5 0 12 6 16 7 4 9 3 5 -4 -15 -24 18 -23 42 2 27 26 38 33 28 17z
m184 5 c0 -11 -19 -15 -25 -6 -3 5 1 10 9 10 9 0 16 -2 16 -4z"/>
<path d="M3826 1751 c-4 -5 -2 -12 3 -15 5 -3 8 -21 6 -41 -1 -21 2 -32 8 -28
6 4 8 0 4 -10 -3 -9 -2 -19 4 -22 5 -4 9 -3 8 2 -4 26 1 35 15 24 11 -9 16 -9
22 0 4 7 3 9 -3 6 -6 -4 -17 0 -24 9 -11 13 -10 15 6 12 10 -1 19 3 21 10 1 7
0 8 -3 2 -2 -5 -9 -7 -14 -4 -6 4 -6 11 1 19 8 9 8 15 0 20 -5 3 -10 3 -10 -1
0 -4 -9 1 -19 10 -11 10 -21 13 -25 7z m49 -24 c4 5 0 -4 -9 -18 -9 -14 -13
-29 -9 -34 5 -4 3 -5 -3 -2 -6 3 -10 16 -9 29 1 13 -3 30 -9 38 -7 10 -3 9 10
-3 11 -9 24 -14 29 -10z"/>
<path d="M3686 1591 c-10 -11 -13 -22 -8 -25 5 -3 15 1 22 9 7 8 17 15 23 15
5 0 2 -9 -7 -19 -14 -15 -15 -21 -4 -27 7 -4 10 -3 5 1 -4 5 0 16 9 26 14 16
14 18 -4 28 -15 8 -23 6 -36 -8z m24 5 c0 -2 -8 -10 -17 -17 -16 -13 -17 -12
-4 4 13 16 21 21 21 13z"/>
<path d="M3498 1531 c-24 -21 -38 -27 -45 -20 -8 8 -13 7 -18 -3 -5 -7 -5 -10
0 -6 4 4 14 3 20 -2 8 -7 17 -4 29 9 10 11 24 17 31 15 7 -3 16 -1 19 5 4 6
13 8 20 5 8 -3 17 0 22 7 4 8 3 10 -5 5 -6 -4 -18 -3 -26 4 -10 8 -21 4 -47
-19z m37 9 c-3 -5 -12 -10 -18 -10 -7 0 -6 4 3 10 19 12 23 12 15 0z"/>
<path d="M3396 1511 c-4 -5 -2 -12 3 -15 5 -4 12 -2 15 3 4 5 2 12 -3 15 -5 4
-12 2 -15 -3z"/>
<path d="M4035 1782 c3 -3 0 -10 -5 -17 -7 -8 -5 -12 5 -12 8 0 13 3 10 5 -3
3 0 10 5 17 7 8 5 12 -5 12 -8 0 -13 -3 -10 -5z"/>
<path d="M4075 1782 c3 -3 0 -10 -5 -17 -7 -8 -5 -12 5 -12 8 0 13 3 10 5 -3
3 0 10 5 17 7 8 5 12 -5 12 -8 0 -13 -3 -10 -5z"/>
<path d="M1110 1770 c0 -5 7 -7 15 -4 8 4 15 8 15 10 0 2 -7 4 -15 4 -8 0 -15
-4 -15 -10z"/>
<path d="M1209 1768 c-7 -23 -3 -45 8 -41 7 3 13 10 13 17 0 6 5 4 11 -4 9
-13 10 -13 6 0 -2 8 -12 14 -22 12 -10 -2 -14 1 -10 7 3 6 4 11 1 11 -3 0 -6
-1 -7 -2z"/>
<path d="M3990 1763 c0 -6 8 -17 18 -24 16 -13 16 -13 2 6 -8 11 -16 22 -17
24 -2 2 -3 0 -3 -6z"/>
<path d="M4130 1759 c0 -5 5 -7 10 -4 6 3 10 8 10 11 0 2 -4 4 -10 4 -5 0 -10
-5 -10 -11z"/>
<path d="M4166 1762 c-3 -5 1 -9 9 -9 8 0 12 4 9 9 -3 4 -7 8 -9 8 -2 0 -6 -4
-9 -8z"/>
<path d="M1037 1753 c-10 -9 -9 -23 1 -23 5 0 9 7 9 15 0 17 -1 18 -10 8z"/>
<path d="M1072 1746 c7 -8 15 -12 17 -11 5 6 -10 25 -20 25 -5 0 -4 -6 3 -14z"/>
<path d="M3966 1743 c-6 -14 -5 -15 5 -6 7 7 10 15 7 18 -3 3 -9 -2 -12 -12z"/>
<path d="M3932 1736 c7 -8 15 -12 17 -11 5 6 -10 25 -20 25 -5 0 -4 -6 3 -14z"/>
<path d="M896 1718 c3 -4 11 -5 19 -1 21 7 19 12 -4 10 -11 0 -18 -5 -15 -9z"/>
<path d="M3752 1718 c-14 -7 -20 -17 -17 -27 2 -9 0 -23 -5 -31 -7 -11 -10
-11 -10 -2 0 7 -5 10 -11 7 -6 -5 -3 -12 10 -21 16 -11 26 -12 41 -4 11 6 18
15 15 21 -5 8 7 13 26 11 9 -1 7 32 -4 46 -11 14 -15 14 -45 0z m42 -28 c-6
-6 -10 -3 -10 10 0 13 4 16 10 10 7 -7 7 -13 0 -20z m-27 1 c-1 -15 -4 -17
-14 -9 -7 5 -10 14 -7 19 10 16 23 9 21 -10z m3 -36 c0 -2 -6 -5 -13 -8 -8 -3
-14 1 -14 8 0 7 6 11 14 8 7 -3 13 -6 13 -8z"/>
<path d="M3975 1719 c-4 -6 -5 -12 -2 -15 2 -3 7 2 10 11 7 17 1 20 -8 4z"/>
<path d="M3995 1711 c-3 -6 3 -14 13 -20 14 -7 19 -6 19 4 0 7 -7 11 -15 7
-10 -3 -13 -1 -8 6 4 7 5 12 2 12 -3 0 -7 -4 -11 -9z"/>
<path d="M4049 1703 c-13 -16 -12 -17 4 -4 9 7 17 15 17 17 0 8 -8 3 -21 -13z"/>
<path d="M1314 1699 c-2 -4 1 -11 7 -15 8 -5 9 -3 4 6 -6 9 -4 11 5 5 11 -7
10 -10 -1 -19 -17 -13 -24 -46 -9 -46 5 0 9 3 9 8 -3 19 2 33 10 28 5 -4 11
-1 13 6 2 6 10 8 16 4 7 -4 9 -13 5 -19 -14 -22 -11 -37 9 -48 25 -13 29 -9
32 35 3 31 1 36 -14 31 -11 -3 -20 1 -24 10 -3 9 -10 13 -16 10 -5 -3 -10 -2
-10 3 0 11 -29 12 -36 1z m92 -51 c5 -7 3 -8 -6 -3 -9 5 -11 1 -6 -16 3 -13 3
-18 0 -11 -3 6 -10 9 -16 6 -6 -4 -5 2 1 15 13 24 17 25 27 9z"/>
<path d="M4116 1702 c-3 -5 1 -9 9 -9 8 0 12 4 9 9 -3 4 -7 8 -9 8 -2 0 -6 -4
-9 -8z"/>
<path d="M4435 1700 c-3 -5 -1 -10 4 -10 6 0 11 5 11 10 0 6 -2 10 -4 10 -3 0
-8 -4 -11 -10z"/>
<path d="M896 1682 c-3 -4 4 -9 15 -9 23 -2 25 3 4 10 -8 4 -16 3 -19 -1z"/>
<path d="M1024 1678 c-4 -6 -3 -8 3 -5 6 4 16 0 23 -8 7 -8 16 -15 21 -15 5 0
0 9 -11 20 -23 23 -26 24 -36 8z"/>
<path d="M4066 1682 c-3 -5 1 -9 9 -9 8 0 15 4 15 9 0 4 -4 8 -9 8 -6 0 -12
-4 -15 -8z"/>
<path d="M3995 1669 c-4 -6 -5 -12 -2 -15 2 -3 7 2 10 11 7 17 1 20 -8 4z"/>
<path d="M4026 1665 c-11 -8 -15 -15 -9 -15 6 0 16 7 23 15 16 19 11 19 -14 0z"/>
<path d="M1350 1657 c-9 -7 -15 -17 -15 -24 0 -16 15 -29 16 -15 2 21 4 27 12
40 10 15 6 15 -13 -1z"/>
<path d="M1020 1651 c0 -7 -5 -9 -12 -5 -7 5 -8 3 -3 -5 5 -9 10 -10 18 -2 6
6 8 14 4 18 -4 3 -7 1 -7 -6z"/>
<path d="M3949 1658 c-7 -19 -6 -59 2 -63 5 -4 6 -11 3 -17 -4 -6 -2 -8 4 -4
5 3 12 3 15 -1 2 -5 2 -2 1 5 -2 6 1 12 6 12 6 0 10 5 10 11 0 8 -4 9 -13 0
-14 -11 -27 -5 -27 11 0 5 6 6 13 2 8 -5 7 -2 -2 9 -8 10 -11 21 -7 24 4 4 12
1 17 -7 9 -13 10 -13 7 -1 -4 13 -26 28 -29 19z"/>
<path d="M885 1640 c-3 -6 1 -7 9 -4 18 7 21 14 7 14 -6 0 -13 -4 -16 -10z"/>
<path d="M1049 1623 c5 -16 13 -27 20 -25 6 1 11 -7 11 -17 0 -24 16 -36 26
-20 4 7 3 9 -4 5 -6 -4 -12 3 -14 16 -2 13 -9 22 -16 21 -6 -2 -12 6 -12 16 0
11 -4 22 -9 25 -6 4 -6 -5 -2 -21z"/>
<path d="M1083 1634 c9 -3 15 -10 12 -15 -4 -5 -1 -9 5 -9 19 0 5 25 -16 27
-16 2 -16 1 -1 -3z"/>
<path d="M3990 1630 c0 -5 7 -7 15 -4 8 4 15 8 15 10 0 2 -7 4 -15 4 -8 0 -15
-4 -15 -10z"/>
<path d="M936 1622 c-2 -4 -1 -14 4 -22 7 -11 9 -9 7 8 -1 24 -3 26 -11 14z"/>
<path d="M974 1619 c-4 -7 -3 -9 4 -5 6 3 15 -2 21 -11 6 -10 11 -13 11 -7 0
20 -27 37 -36 23z"/>
<path d="M1025 1619 c-4 -6 -5 -12 -2 -15 2 -3 7 2 10 11 7 17 1 20 -8 4z"/>
<path d="M1493 1610 c-20 -15 -21 -20 -8 -30 8 -7 12 -17 8 -23 -3 -6 -1 -7 6
-3 6 4 9 11 6 16 -8 12 6 41 16 34 5 -3 9 -1 9 5 0 19 -15 19 -37 1z"/>
<path d="M4019 1620 c-9 -6 -6 -8 14 -6 32 3 43 11 18 13 -9 1 -24 -2 -32 -7z"/>
<path d="M4034 1578 c0 -11 4 -14 12 -8 6 6 13 8 16 5 2 -3 5 1 5 8 0 7 -8 13
-17 13 -8 0 -16 -8 -16 -18z"/>
<path d="M973 1575 c0 -8 4 -12 9 -9 4 3 8 9 8 15 0 5 -4 9 -8 9 -5 0 -9 -7
-9 -15z"/>
<path d="M3860 1580 c0 -5 5 -10 10 -10 6 0 10 5 10 10 0 6 -4 10 -10 10 -5 0
-10 -4 -10 -10z"/>
<path d="M3893 1576 c3 -8 -1 -17 -9 -19 -10 -4 -9 -5 2 -3 18 1 29 36 12 36
-6 0 -8 -6 -5 -14z"/>
<path d="M3920 1580 c0 -5 5 -10 10 -10 6 0 10 5 10 10 0 6 -4 10 -10 10 -5 0
-10 -4 -10 -10z"/>
<path d="M4267 1579 c7 -7 15 -10 18 -7 3 3 -2 9 -12 12 -14 6 -15 5 -6 -5z"/>
<path d="M936 1553 c-6 -14 -5 -15 5 -6 7 7 10 15 7 18 -3 3 -9 -2 -12 -12z"/>
<path d="M1000 1555 c-7 -9 -11 -17 -9 -20 3 -2 10 5 17 15 14 24 10 26 -8 5z"/>
<path d="M1030 1560 c0 -5 5 -10 10 -10 6 0 10 5 10 10 0 6 -4 10 -10 10 -5 0
-10 -4 -10 -10z"/>
<path d="M1200 1560 c-13 -8 -12 -10 3 -10 9 0 17 5 17 10 0 12 -1 12 -20 0z"/>
<path d="M3990 1565 c0 -5 5 -17 10 -25 5 -8 10 -10 10 -5 0 6 -5 17 -10 25
-5 8 -10 11 -10 5z"/>
<path d="M1123 1550 c-13 -5 -23 -11 -23 -14 0 -7 40 6 46 15 6 10 6 10 -23
-1z"/>
<path d="M1170 1545 c0 -8 4 -15 10 -15 5 0 7 7 4 15 -4 8 -8 15 -10 15 -2 0
-4 -7 -4 -15z"/>
<path d="M3962 1544 c10 -10 20 -16 22 -13 3 3 -5 11 -17 18 -21 13 -21 12 -5
-5z"/>
<path d="M4051 1547 c-8 -10 -7 -14 2 -14 8 0 14 6 14 14 0 7 -1 13 -2 13 -2
0 -8 -6 -14 -13z"/>
<path d="M3910 1546 c0 -2 9 -6 20 -9 11 -3 18 -1 14 4 -5 9 -34 13 -34 5z"/>
<path d="M3875 1529 c-4 -6 -5 -12 -2 -15 2 -3 7 2 10 11 7 17 1 20 -8 4z"/>
<path d="M936 1522 c-3 -5 1 -9 9 -9 8 0 12 4 9 9 -3 4 -7 8 -9 8 -2 0 -6 -4
-9 -8z"/>
<path d="M1235 1519 c-4 -6 -4 -13 -1 -16 3 -3 1 -11 -4 -18 -7 -8 -5 -12 5
-12 8 0 11 5 8 10 -4 7 1 8 13 4 18 -7 18 -6 2 7 -20 15 -25 31 -6 20 7 -4 8
-3 4 4 -9 15 -13 15 -21 1z"/>
<path d="M3805 1520 c-5 -8 -4 -11 2 -7 6 4 14 0 17 -9 3 -8 10 -13 15 -10 5
4 12 1 14 -4 4 -7 5 -6 4 1 -2 6 -6 9 -9 7 -4 -2 -13 6 -21 16 -11 15 -16 16
-22 6z"/>
<path d="M3908 1523 c7 -3 16 -2 19 1 4 3 -2 6 -13 5 -11 0 -14 -3 -6 -6z"/>
<path d="M1084 1498 l-19 -23 23 19 c21 18 27 26 19 26 -2 0 -12 -10 -23 -22z"/>
<path d="M1159 1518 c-5 -18 -6 -38 -1 -34 7 8 12 36 6 36 -2 0 -4 -1 -5 -2z"/>
<path d="M1188 1513 c7 -3 16 -2 19 1 4 3 -2 6 -13 5 -11 0 -14 -3 -6 -6z"/>
<path d="M1286 1503 c-6 -14 -5 -15 5 -6 7 7 10 15 7 18 -3 3 -9 -2 -12 -12z"/>
<path d="M1820 1511 c-8 -6 -19 -7 -24 -4 -5 4 0 -8 13 -25 22 -31 17 -44 -7
-20 -7 7 -12 9 -12 4 0 -4 6 -14 14 -21 12 -12 16 -12 25 -1 6 7 8 15 5 19 -3
3 4 8 15 12 17 5 19 10 11 26 -12 21 -18 23 -40 10z m24 -10 c3 -5 -1 -14 -8
-20 -12 -10 -14 -9 -11 6 2 10 4 19 4 21 2 5 10 2 15 -7z"/>
<path d="M3149 1519 c0 -2 -2 -12 -4 -22 -2 -9 1 -14 6 -11 6 3 18 0 27 -7 12
-10 12 -7 -3 11 -11 14 -21 27 -22 29 -2 2 -3 2 -4 0z"/>
<path d="M1330 1500 c0 -5 5 -10 10 -10 6 0 10 5 10 10 0 6 -4 10 -10 10 -5 0
-10 -4 -10 -10z"/>
<path d="M3712 1492 c-23 -17 -23 -19 -5 -32 15 -12 16 -12 6 0 -10 11 -8 17
15 32 15 10 23 18 17 18 -5 0 -20 -9 -33 -18z"/>
<path d="M3950 1506 c0 -2 7 -7 16 -10 8 -3 12 -2 9 4 -6 10 -25 14 -25 6z"/>
<path d="M3747 1488 c-16 -12 -15 -13 7 -13 15 0 22 5 19 13 -3 6 -6 12 -7 12
-1 0 -10 -6 -19 -12z"/>
<path d="M1316 1478 c5 -7 2 -9 -9 -5 -11 4 -14 2 -10 -9 4 -12 8 -12 22 -2 9
7 17 13 19 14 2 1 -4 4 -13 8 -11 4 -14 2 -9 -6z"/>
<path d="M1415 1481 c-3 -5 0 -13 6 -17 7 -4 9 -3 5 4 -3 5 0 13 6 15 9 4 10
6 1 6 -6 1 -14 -3 -18 -8z"/>
<path d="M3639 1480 c-3 -20 -4 -25 -12 -37 -5 -9 -3 -11 6 -7 8 3 15 16 15
30 0 23 -7 34 -9 14z"/>
<path d="M3906 1482 c-3 -5 1 -9 9 -9 8 0 12 4 9 9 -3 4 -7 8 -9 8 -2 0 -6 -4
-9 -8z"/>
<path d="M1386 1464 c-4 -9 -4 -19 -1 -22 3 -3 5 0 5 7 0 7 4 9 10 6 6 -3 7 1
4 9 -8 20 -10 20 -18 0z"/>
<path d="M1537 1467 c-3 -8 1 -14 8 -14 7 0 11 6 8 14 -3 7 -6 13 -8 13 -2 0
-5 -6 -8 -13z"/>
<path d="M2618 1456 c-10 -19 -9 -20 5 -8 9 8 21 11 27 7 5 -3 10 0 10 8 0 21
-30 16 -42 -7z"/>
<path d="M2786 1467 c6 -17 -21 -41 -35 -32 -7 3 -8 0 -5 -9 7 -19 20 -21 27
-3 4 10 6 10 6 0 1 -7 6 -13 12 -13 5 0 7 5 4 10 -3 6 -2 10 4 10 5 0 12 -6
14 -12 3 -7 4 1 4 17 -2 28 -12 44 -29 45 -4 0 -5 -6 -2 -13z m24 -21 c0 -2
-7 -7 -16 -10 -8 -3 -12 -2 -9 4 6 10 25 14 25 6z"/>
<path d="M3570 1469 c0 -5 -5 -7 -11 -3 -8 4 -8 0 0 -15 14 -25 23 -28 14 -4
-4 11 -3 14 5 9 8 -5 10 -2 6 8 -7 18 -14 21 -14 5z"/>
<path d="M1259 1468 c-5 -18 -6 -38 -1 -34 7 8 12 36 6 36 -2 0 -4 -1 -5 -2z"/>
<path d="M2853 1455 c0 -9 4 -14 9 -13 5 2 10 8 10 13 0 5 -5 11 -10 13 -5 1
-9 -4 -9 -13z"/>
<path d="M3467 1452 c-19 -21 -22 -38 -7 -47 6 -4 7 1 3 11 -4 11 1 22 12 30
10 8 16 16 13 19 -2 3 -12 -3 -21 -13z"/>
<path d="M3739 1453 c-12 -16 -12 -17 2 -6 9 7 20 9 24 5 5 -4 5 -1 1 6 -9 16
-11 15 -27 -5z"/>
<path d="M3839 1453 c-13 -16 -12 -17 4 -4 16 13 21 21 13 21 -2 0 -10 -8 -17
-17z"/>
<path d="M1431 1447 c-8 -10 -7 -14 2 -14 8 0 14 6 14 14 0 7 -1 13 -2 13 -2
0 -8 -6 -14 -13z"/>
<path d="M1590 1449 c0 -5 -5 -7 -12 -3 -7 4 -8 3 -4 -5 6 -9 11 -9 22 0 17
14 18 19 4 19 -5 0 -10 -5 -10 -11z"/>
<path d="M1216 1442 c-3 -5 1 -9 9 -9 8 0 12 4 9 9 -3 4 -7 8 -9 8 -2 0 -6 -4
-9 -8z"/>
<path d="M3666 1442 c-3 -5 1 -9 9 -9 8 0 15 4 15 9 0 4 -4 8 -9 8 -6 0 -12
-4 -15 -8z"/>
<path d="M3915 1440 c3 -5 8 -10 11 -10 2 0 4 5 4 10 0 6 -5 10 -11 10 -5 0
-7 -4 -4 -10z"/>
<path d="M1515 1430 c-4 -6 -10 -8 -14 -6 -4 3 -13 1 -20 -4 -9 -5 -3 -7 16
-7 17 1 30 7 30 14 0 16 -4 16 -12 3z"/>
<path d="M1548 1433 c6 -2 9 -10 6 -15 -4 -7 -2 -8 5 -4 13 9 5 26 -12 25 -9
0 -8 -2 1 -6z"/>
<path d="M1690 1429 c0 -5 -4 -8 -9 -4 -5 3 -12 1 -15 -4 -4 -5 2 -8 11 -7 15
3 33 26 19 26 -3 0 -6 -5 -6 -11z"/>
<path d="M1783 1420 c-11 -16 -10 -18 2 -14 8 4 15 12 15 20 0 19 -3 18 -17
-6z"/>
<path d="M3311 1413 c-10 -26 -10 -27 4 -9 8 11 15 23 15 28 0 15 -7 8 -19
-19z"/>
<path d="M1714 1408 c-14 -17 -15 -20 -2 -9 9 7 22 10 27 6 7 -3 8 0 5 9 -8
20 -7 20 -30 -6z"/>
<path d="M3240 1419 c0 -5 5 -7 10 -4 6 3 10 8 10 11 0 2 -4 4 -10 4 -5 0 -10
-5 -10 -11z"/>
<path d="M3275 1420 c3 -5 8 -10 11 -10 2 0 4 5 4 10 0 6 -5 10 -11 10 -5 0
-7 -4 -4 -10z"/>
<path d="M3354 1419 c-4 -7 -3 -9 4 -5 5 3 13 0 15 -6 4 -9 6 -10 6 -1 1 17
-16 25 -25 12z"/>
<path d="M3431 1414 c0 -11 3 -14 6 -6 3 7 2 16 -1 19 -3 4 -6 -2 -5 -13z"/>
<path d="M3499 1413 c-13 -16 -12 -17 4 -4 16 13 21 21 13 21 -2 0 -10 -8 -17
-17z"/>
<path d="M3553 1415 c0 -8 4 -12 9 -9 5 3 6 10 3 15 -9 13 -12 11 -12 -6z"/>
<path d="M1901 1416 c2 -2 15 -9 29 -15 24 -11 24 -11 6 3 -16 13 -49 24 -35
12z"/>
<path d="M1950 1416 c0 -3 9 -10 20 -16 11 -6 20 -8 20 -6 0 3 -9 10 -20 16
-11 6 -20 8 -20 6z"/>
<path d="M1874 1385 c0 -28 8 -24 13 5 2 11 -1 20 -5 20 -4 0 -8 -11 -8 -25z"/>
<path d="M2016 1402 c-2 -4 0 -14 6 -22 8 -12 9 -12 4 3 -4 12 0 17 13 17 14
0 18 -6 15 -22 -4 -21 -4 -21 5 -3 4 11 7 23 4 28 -6 9 -41 9 -47 -1z"/>
<path d="M2993 1386 c0 -14 6 -27 14 -30 9 -4 11 -2 6 7 -4 6 -8 18 -9 25 -4
25 -11 23 -11 -2z"/>
<path d="M3199 1408 c-6 -20 -6 -39 0 -42 4 -3 7 6 7 20 0 20 -4 32 -7 22z"/>
<path d="M3259 1408 c-9 -30 -6 -37 12 -28 23 13 25 22 2 13 -11 -4 -14 -3 -9
5 4 7 5 12 2 12 -3 0 -6 -1 -7 -2z"/>
<path d="M3734 1402 c4 -3 14 -7 22 -8 9 -1 13 0 10 4 -4 3 -14 7 -22 8 -9 1
-13 0 -10 -4z"/>
<path d="M2101 1393 c-1 -6 4 -15 9 -18 6 -4 8 -10 6 -14 -3 -4 1 -8 9 -8 10
0 12 4 5 12 -5 7 -6 16 -2 20 4 5 2 5 -5 2 -6 -4 -14 -1 -16 5 -4 9 -6 10 -6
1z"/>
<path d="M2252 1380 c0 -14 2 -19 5 -12 2 6 2 18 0 25 -3 6 -5 1 -5 -13z"/>
<path d="M2426 1384 c-4 -9 -4 -19 -1 -22 3 -3 5 0 5 7 0 7 4 9 10 6 6 -3 7 1
4 9 -8 20 -10 20 -18 0z"/>
<path d="M2470 1391 c0 -6 4 -13 10 -16 6 -3 7 1 4 9 -7 18 -14 21 -14 7z"/>
<path d="M2736 1383 c-6 -14 -5 -15 5 -6 7 7 10 15 7 18 -3 3 -9 -2 -12 -12z"/>
<path d="M2763 1381 c-10 -15 -9 -20 2 -25 10 -3 12 0 8 11 -4 11 -2 14 5 9 8
-5 10 -2 6 8 -8 20 -7 20 -21 -3z"/>
<path d="M2798 1393 c7 -3 16 -2 19 1 4 3 -2 6 -13 5 -11 0 -14 -3 -6 -6z"/>
<path d="M3070 1389 c0 -5 5 -7 10 -4 6 3 10 8 10 11 0 2 -4 4 -10 4 -5 0 -10
-5 -10 -11z"/>
<path d="M3150 1389 c0 -5 5 -7 10 -4 6 3 10 8 10 11 0 2 -4 4 -10 4 -5 0 -10
-5 -10 -11z"/>
<path d="M1475 1379 c-3 -4 2 -6 10 -5 21 3 28 13 10 13 -9 0 -18 -4 -20 -8z"/>
<path d="M1547 1379 c7 -7 15 -10 18 -7 3 3 -2 9 -12 12 -14 6 -15 5 -6 -5z"/>
<path d="M1920 1386 c0 -2 8 -10 18 -17 15 -13 16 -12 3 4 -13 16 -21 21 -21
13z"/>
<path d="M2160 1380 c-12 -7 -10 -9 8 -7 12 0 22 5 22 9 0 11 -12 10 -30 -2z"/>
<path d="M2205 1380 c3 -5 8 -10 11 -10 2 0 4 5 4 10 0 6 -5 10 -11 10 -5 0
-7 -4 -4 -10z"/>
<path d="M2313 1375 c0 -8 6 -16 14 -19 11 -4 11 -1 3 14 -13 24 -17 25 -17 5z"/>
<path d="M2380 1386 c0 -2 7 -7 16 -10 8 -3 12 -2 9 4 -6 10 -25 14 -25 6z"/>
<path d="M2576 1375 c4 -8 8 -15 10 -15 2 0 4 7 4 15 0 8 -4 15 -10 15 -5 0
-7 -7 -4 -15z"/>
<path d="M2610 1375 c0 -8 2 -15 4 -15 2 0 6 7 10 15 3 8 1 15 -4 15 -6 0 -10
-7 -10 -15z"/>
<path d="M2904 1374 c-18 -15 -18 -15 2 -5 12 6 25 7 29 3 5 -4 5 -1 1 6 -9
15 -8 15 -32 -4z"/>
<path d="M2956 1381 c-3 -5 2 -15 12 -22 15 -13 16 -12 4 3 -10 13 -10 17 0
21 9 4 9 6 1 6 -6 1 -14 -3 -17 -8z"/>
<path d="M3566 1378 c3 -5 10 -6 15 -3 13 9 11 12 -6 12 -8 0 -12 -4 -9 -9z"/>
<path d="M1990 1376 c0 -2 8 -10 18 -17 15 -13 16 -12 3 4 -13 16 -21 21 -21
13z"/>
<path d="M1775 1360 c3 -5 8 -10 11 -10 2 0 4 5 4 10 0 6 -5 10 -11 10 -5 0
-7 -4 -4 -10z"/>
<path d="M2278 1363 c7 -3 16 -2 19 1 4 3 -2 6 -13 5 -11 0 -14 -3 -6 -6z"/>
<path d="M2455 1361 c-3 -5 0 -13 7 -18 15 -9 61 -13 52 -4 -3 3 -15 6 -27 6
-12 1 -21 6 -19 13 2 14 -4 16 -13 3z"/>
<path d="M2654 1356 c1 -8 5 -18 8 -22 4 -3 5 1 4 10 -1 8 -5 18 -8 22 -4 3
-5 -1 -4 -10z"/>
<path d="M3330 1359 c0 -5 5 -7 10 -4 6 3 10 8 10 11 0 2 -4 4 -10 4 -5 0 -10
-5 -10 -11z"/>
<path d="M2538 1348 c6 -6 18 -8 28 -6 14 3 12 5 -9 10 -19 3 -25 2 -19 -4z"/>
<path d="M2055 1340 c-3 -5 -1 -10 4 -10 6 0 11 5 11 10 0 6 -2 10 -4 10 -3 0
-8 -4 -11 -10z"/>
<path d="M2870 1346 c0 -2 7 -7 16 -10 8 -3 12 -2 9 4 -6 10 -25 14 -25 6z"/>
<path d="M2813 1325 c0 -8 4 -12 9 -9 5 3 6 10 3 15 -9 13 -12 11 -12 -6z"/>
<path d="M2133 1309 c-2 -23 3 -25 10 -4 4 8 3 16 -1 19 -4 3 -9 -4 -9 -15z"/>
<path d="M2775 1320 c-3 -5 -1 -10 4 -10 6 0 11 5 11 10 0 6 -2 10 -4 10 -3 0
-8 -4 -11 -10z"/>
<path d="M2845 1320 c-3 -6 1 -7 9 -4 18 7 21 14 7 14 -6 0 -13 -4 -16 -10z"/>
<path d="M3013 1323 c4 -3 1 -13 -6 -22 -11 -14 -10 -14 5 -2 16 12 16 31 1
31 -4 0 -3 -3 0 -7z"/>
<path d="M2554 1306 c1 -8 5 -18 8 -22 4 -3 5 1 4 10 -1 8 -5 18 -8 22 -4 3
-5 -1 -4 -10z"/>
<path d="M3356 1307 c3 -10 9 -15 12 -12 3 3 0 11 -7 18 -10 9 -11 8 -5 -6z"/>
<path d="M3169 1263 c-13 -16 -12 -17 4 -4 16 13 21 21 13 21 -2 0 -10 -8 -17
-17z"/>
</g>
</svg>
